<svg width="30" height="30" viewBox="0 0 30 30" fill="none" xmlns="http://www.w3.org/2000/svg">
<path d="M0.918425 8.80064C0.0667325 9.40733 -0.432452 10.6921 0.508531 12.2283C1.44951 13.7645 14.8931 24.1336 15.3859 24.4215C15.8789 24.7097 16.3721 24.7576 17.6264 23.7496C18.8813 22.7413 29.3653 14.8656 29.6358 14.6287C30.0663 14.2518 30.1735 13.3325 29.6358 12.9003C29.6358 12.9003 16.9346 22.4052 16.5188 22.7895C16.1031 23.1735 15.4561 22.5495 15.5776 21.7335C15.6996 20.9172 15.7894 20.8211 17.4026 19.5731C19.0158 18.3248 28.1622 11.3928 28.5772 11.0864C29.0471 10.7391 29.0584 10.1258 28.2887 9.58345C27.2185 8.82937 15.6538 0.604729 15.2669 0.316815C14.879 0.0286648 14.3421 -0.233137 13.5356 0.342927C12.7291 0.918991 2.48311 7.68578 0.918425 8.80064Z" fill="#316DC2"/>
<path d="M15.3859 25.4333C15.0624 25.2442 9.16394 20.7154 4.87955 17.1892V24.5413C4.87623 29.9082 19.9969 32.7757 25.0062 26.1781V19.1512C21.9289 21.4764 18.3294 24.1965 17.6264 24.7611C16.3721 25.7692 15.8789 25.7212 15.3859 25.4333Z" fill="#316DC2"/>
<path d="M21.7845 17.3718C21.7845 17.3718 24.0327 18.5021 24.1926 23.0505L23.1034 22.7503L22.232 24.6014C21.8633 19.6207 19.8557 18.8985 19.8557 18.8985L21.7845 17.3718Z" fill="#98B8E6"/>
</svg>
