<svg width="36" height="36" viewBox="0 0 36 36" fill="none" xmlns="http://www.w3.org/2000/svg">
<circle cx="18" cy="18" r="18" fill="#316DC2"/>
<path d="M25.8574 21.4207C25.8144 21.3518 25.5484 20.7992 24.2683 19.6634C22.9282 18.4741 23.1082 18.6673 24.7223 16.6108C25.7054 15.3584 26.0984 14.5936 25.9754 14.2666C25.8584 13.9549 25.1353 14.0371 25.1353 14.0371L22.7312 14.0505C22.7312 14.0505 22.5531 14.0276 22.4201 14.1031C22.2911 14.1777 22.2081 14.3498 22.2081 14.3498C22.2081 14.3498 21.8271 15.3192 21.3191 16.1433C20.248 17.8823 19.8189 17.9741 19.6439 17.8661C19.2369 17.6146 19.3389 16.8546 19.3389 16.3154C19.3389 14.6299 19.6059 13.9272 18.8179 13.7455C18.5559 13.6853 18.3638 13.6452 17.6948 13.6385C16.8367 13.6299 16.1097 13.6413 15.6986 13.8335C15.4246 13.9616 15.2136 14.2475 15.3426 14.2637C15.5016 14.2838 15.8617 14.3565 16.0527 14.605C16.2997 14.9253 16.2907 15.6462 16.2907 15.6462C16.2907 15.6462 16.4327 17.6299 15.9597 17.8766C15.6346 18.0458 15.1896 17.7007 14.2345 16.1223C13.7455 15.3144 13.3755 14.4205 13.3755 14.4205C13.3755 14.4205 13.3045 14.2542 13.1775 14.1652C13.0234 14.0572 12.8074 14.0228 12.8074 14.0228L10.5213 14.0362C10.5213 14.0362 10.1782 14.0457 10.0522 14.1882C9.94022 14.3153 10.0432 14.5773 10.0432 14.5773C10.0432 14.5773 11.8334 18.5802 13.8595 20.5985C15.7186 22.4484 17.8288 22.327 17.8288 22.327H18.7849C18.7849 22.327 19.0739 22.2964 19.2209 22.1444C19.3569 22.0048 19.3519 21.7428 19.3519 21.7428C19.3519 21.7428 19.3329 20.5162 19.929 20.3355C20.516 20.1577 21.2701 21.521 22.0691 22.0459C22.6732 22.4427 23.1322 22.3557 23.1322 22.3557L25.2693 22.327C25.2693 22.327 26.3874 22.261 25.8574 21.4207Z" fill="white"/>
</svg>
