<svg width="36" height="36" viewBox="0 0 36 36" fill="none" xmlns="http://www.w3.org/2000/svg">
<circle cx="18" cy="18" r="18" fill="#316DC2"/>
<path d="M17.9997 12.4203C18.9619 12.4203 19.7443 13.1874 19.7443 14.1305C19.7443 15.0708 18.9619 15.8378 17.9997 15.8378C17.0376 15.8378 16.2552 15.0708 16.2552 14.1305C16.2552 13.1874 17.0376 12.4203 17.9997 12.4203ZM17.9997 18.2582C20.3239 18.2582 22.2134 16.406 22.2134 14.1305C22.2134 11.8522 20.3239 10 17.9997 10C15.6756 10 13.789 11.8522 13.789 14.1305C13.789 16.406 15.6756 18.2582 17.9997 18.2582ZM19.7037 21.6273C20.5615 21.4342 21.3875 21.1018 22.1496 20.6331C22.7263 20.278 22.9002 19.5308 22.5379 18.9655C22.1728 18.3974 21.4135 18.2269 20.8339 18.5848C19.1097 19.6473 16.8898 19.6473 15.1626 18.5848C14.5859 18.2269 13.8238 18.3974 13.4615 18.9655C13.0993 19.5308 13.2732 20.278 13.8499 20.6331C14.612 21.1018 15.4379 21.4342 16.2957 21.6273L13.9397 23.934C13.4586 24.4056 13.4586 25.1726 13.9397 25.6442C14.1831 25.88 14.4961 25.9993 14.812 25.9993C15.1279 25.9993 15.4437 25.88 15.6872 25.6442L17.9997 23.3772L20.3152 25.6442C20.7963 26.1186 21.5758 26.1186 22.0598 25.6442C22.5408 25.1726 22.5408 24.4056 22.0598 23.934L19.7037 21.6273Z" fill="white"/>
</svg>
