<svg width="70" height="70" viewBox="0 0 70 70" fill="none" xmlns="http://www.w3.org/2000/svg">
<g clip-path="url(#clip0_27_3980)">
<path fill-rule="evenodd" clip-rule="evenodd" d="M22.3882 3.27882C30.3332 -1.16442 40.0989 -1.08676 47.9693 3.48225C55.7624 8.14432 60.4988 16.4647 60.4547 25.4152C60.2733 34.3069 55.1945 42.6651 48.846 49.1264C45.1819 52.8725 41.0829 56.185 36.6328 58.9963C36.1744 59.2513 35.6724 59.4221 35.1514 59.5001C34.65 59.4796 34.1617 59.337 33.7306 59.0852C26.9366 54.8611 20.9763 49.4692 16.1362 43.169C12.0862 37.9099 9.7853 31.5561 9.5459 24.9706C9.54065 16.003 14.4433 7.72206 22.3882 3.27882ZM26.9793 28.6819C28.3158 31.8531 31.4703 33.9216 34.9701 33.9216C37.2628 33.9374 39.4668 33.0535 41.0908 31.4668C42.7149 29.8801 43.6242 27.7224 43.6161 25.4745C43.6283 22.0432 41.5296 18.9432 38.2998 17.6218C35.0699 16.3004 31.3462 17.0183 28.8672 19.4403C26.3881 21.8623 25.6429 25.5107 26.9793 28.6819Z" fill="#316DC2"/>
<path d="M53.1825 66.5001C53.1825 68.4331 45.0422 70.0001 35.0006 70.0001C24.959 70.0001 16.8187 68.4331 16.8187 66.5001C16.8187 64.5671 24.959 63.0001 35.0006 63.0001C45.0422 63.0001 53.1825 64.5671 53.1825 66.5001Z" fill="#316DC2"/>
</g>
<defs>
<clipPath id="clip0_27_3980">
<rect width="70" height="70" fill="white"/>
</clipPath>
</defs>
</svg>
