<svg width="36" height="36" viewBox="0 0 36 36" fill="none" xmlns="http://www.w3.org/2000/svg">
<circle cx="18" cy="18" r="18" fill="#316DC2"/>
<path d="M19.415 10.3635C18.9486 10.3635 18.5109 10.612 18.2302 10.9703C17.9494 11.3285 17.7947 11.7653 17.6819 12.2255C17.5029 12.9656 17.4476 13.7868 17.4344 14.5269C16.1235 14.6184 14.9364 15.0264 13.9505 15.6567C13.5504 15.3036 13.0685 15.1075 12.6065 15.1127C12.0804 15.1179 11.5808 15.3559 11.2094 15.845C10.4998 16.7786 10.5816 18.3059 11.4039 19.2133C11.3531 19.4932 11.3155 19.7808 11.3155 20.0711C11.3155 23.1466 14.3086 25.6363 18.0003 25.6363C21.6919 25.6363 24.685 23.144 24.685 20.0711C24.685 19.7808 24.6474 19.4932 24.5966 19.2133C25.4189 18.3059 25.5007 16.7786 24.7911 15.845C24.4197 15.3559 23.9202 15.1179 23.394 15.1127C22.932 15.1075 22.4501 15.3036 22.05 15.6567C21.0685 15.029 19.8881 14.6211 18.5839 14.5269C18.6015 13.8443 18.648 13.1356 18.7784 12.6021C18.8602 12.2674 18.9574 12.0242 19.0613 11.8908C19.1652 11.7574 19.2404 11.7025 19.415 11.7025C19.793 11.7025 19.8417 11.8306 20.0694 12.1419C20.1843 12.2988 20.3169 12.4949 20.5292 12.6858C20.7414 12.8767 21.0553 13.0415 21.3957 13.0415V11.7025C21.3006 11.7025 21.283 11.6999 21.2188 11.6397C21.1547 11.5796 21.0663 11.441 20.9359 11.2632C20.675 10.9049 20.1688 10.3635 19.415 10.3635ZM23.0934 10.4891C22.2136 10.4891 21.5018 11.3311 21.5018 12.372C21.5018 13.4128 22.2136 14.2549 23.0934 14.2549C23.9732 14.2549 24.685 13.4128 24.685 12.372C24.685 11.3311 23.9732 10.4891 23.0934 10.4891ZM23.0934 11.1585C23.6593 11.1585 24.1191 11.7025 24.1191 12.372C24.1191 13.0415 23.6593 13.5854 23.0934 13.5854C22.5275 13.5854 22.0677 13.0415 22.0677 12.372C22.0677 11.7025 22.5275 11.1585 23.0934 11.1585ZM18.0003 15.573C21.1326 15.573 23.7831 17.6364 23.7831 20.0711C23.7831 22.5085 21.1326 24.5693 18.0003 24.5693C14.8679 24.5693 12.2174 22.5085 12.2174 20.0711C12.2174 17.6364 14.8679 15.573 18.0003 15.573ZM12.6242 16.1797C12.7811 16.1823 12.9447 16.2242 13.1017 16.3052C12.5335 16.8152 12.0826 17.401 11.7753 18.0627C11.5631 17.5448 11.6206 16.8989 11.8814 16.5563C12.0715 16.3052 12.3346 16.1771 12.6242 16.1797ZM23.3764 16.1797C23.6659 16.1771 23.929 16.3052 24.1191 16.5563C24.38 16.8989 24.4374 17.5448 24.2252 18.0627C23.9179 17.401 23.467 16.8152 22.8989 16.3052C23.0558 16.2242 23.2194 16.1823 23.3764 16.1797ZM15.7366 17.8534C15.1707 17.8534 14.7109 18.3974 14.7109 19.0669C14.7109 19.7364 15.1707 20.2803 15.7366 20.2803C16.3026 20.2803 16.7624 19.7364 16.7624 19.0669C16.7624 18.3974 16.3026 17.8534 15.7366 17.8534ZM20.2639 17.8534C19.698 17.8534 19.2382 18.3974 19.2382 19.0669C19.2382 19.7364 19.698 20.2803 20.2639 20.2803C20.8298 20.2803 21.2896 19.7364 21.2896 19.0669C21.2896 18.3974 20.8298 17.8534 20.2639 17.8534ZM15.1884 21.975C15.5488 22.8563 16.6629 23.7115 18.0003 23.7115C19.3377 23.7115 20.4695 22.8563 20.8298 21.975C20.1755 22.4745 19.1431 22.8118 18.0003 22.8118C16.8574 22.8118 15.8428 22.4745 15.1884 21.975Z" fill="white"/>
</svg>
