<svg width="32" height="32" viewBox="0 0 32 32" fill="none" xmlns="http://www.w3.org/2000/svg">
<rect width="32" height="32" rx="16" fill="white"/>
<path d="M10.3674 13.5203C10.0267 13.7629 9.82702 14.2769 10.2034 14.8913C10.5798 15.5058 15.9573 19.6535 16.1544 19.7686C16.3516 19.8839 16.5488 19.9031 17.0505 19.4998C17.5525 19.0965 21.7461 15.9462 21.8543 15.8515C22.0265 15.7007 22.0694 15.333 21.8543 15.1601C21.8543 15.1601 16.7739 18.9621 16.6075 19.1158C16.4412 19.2694 16.1825 19.0198 16.231 18.6934C16.2799 18.3669 16.3157 18.3284 16.961 17.8292C17.6063 17.3299 21.2649 14.5571 21.4309 14.4346C21.6188 14.2957 21.6234 14.0503 21.3155 13.8334C20.8874 13.5317 16.2615 10.2419 16.1068 10.1267C15.9516 10.0115 15.7368 9.90675 15.4142 10.1372C15.0916 10.3676 10.9932 13.0743 10.3674 13.5203Z" fill="#316DC2"/>
<path d="M16.1544 20.1733C16.025 20.0977 13.6656 18.2862 11.9518 16.8757V19.8165C11.9505 21.9633 17.9988 23.1103 20.0025 20.4713V17.6605C18.7716 18.5905 17.3318 19.6786 17.0505 19.9045C16.5488 20.3077 16.3516 20.2885 16.1544 20.1733Z" fill="#316DC2"/>
<path d="M18.7138 16.9487C18.7138 16.9487 19.6131 17.4008 19.6771 19.2202L19.2414 19.1001L18.8928 19.8406C18.7453 17.8483 17.9423 17.5594 17.9423 17.5594L18.7138 16.9487Z" fill="#98B8E6"/>
</svg>
